<svg width="48" height="48" viewBox="0 0 48 48" fill="none" xmlns="http://www.w3.org/2000/svg">
<path d="M23 1C24 1.5 26 4.8 26 7C26 9.2 24.66 10 23 10C21.34 10 20 9.7 20 7.5C20 5.3 22 4 23 1ZM37 18C42 18 46 22 46 27C46 30.12 44.42 32.86 42 34.48V46H6V34.48C3.58 32.86 2 30.12 2 27C2 22 6 18 11 18H20V12H26V18H37ZM24 32C25.3261 32 26.5979 31.4732 27.5355 30.5355C28.4732 29.5979 29 28.3261 29 27H32C32 28.3261 32.5268 29.5979 33.4645 30.5355C34.4021 31.4732 35.6739 32 37 32C38.3261 32 39.5979 31.4732 40.5355 30.5355C41.4732 29.5979 42 28.3261 42 27C42 25.6739 41.4732 24.4021 40.5355 23.4645C39.5979 22.5268 38.3261 22 37 22H11C9.67392 22 8.40215 22.5268 7.46447 23.4645C6.52678 24.4021 6 25.6739 6 27C6 28.3261 6.52678 29.5979 7.46447 30.5355C8.40215 31.4732 9.67392 32 11 32C12.3261 32 13.5979 31.4732 14.5355 30.5355C15.4732 29.5979 16 28.3261 16 27H19C19 28.3261 19.5268 29.5979 20.4645 30.5355C21.4021 31.4732 22.6739 32 24 32Z" fill="#979797"/>
</svg>
