<svg width="24" height="24" viewBox="0 0 24 24" fill="#2c2c31" xmlns="http://www.w3.org/2000/svg">
<path d="M20.996 11.712L21.995 11.68C21.9902 11.5271 21.9503 11.3774 21.8785 11.2423C21.8067 11.1072 21.7049 10.9904 21.5809 10.9009C21.4568 10.8114 21.3139 10.7515 21.1631 10.7258C21.0123 10.7002 20.8576 10.7095 20.711 10.753L20.996 11.712ZM12.289 3.005L13.247 3.289C13.2905 3.14236 13.2998 2.98768 13.2742 2.83688C13.2485 2.68608 13.1886 2.54317 13.0991 2.41915C13.0096 2.29513 12.8928 2.1933 12.7577 2.1215C12.6226 2.0497 12.4729 2.00985 12.32 2.005L12.289 3.005ZM20.711 10.753C20.1556 10.9175 19.5793 11.0007 19 11V13C19.7719 13.0006 20.5399 12.8894 21.28 12.67L20.711 10.753ZM19 11C17.4087 11 15.8826 10.3679 14.7574 9.24264C13.6321 8.11742 13 6.5913 13 5H11C11 7.12173 11.8429 9.15656 13.3431 10.6569C14.8434 12.1571 16.8783 13 19 13V11ZM13 5C13 4.404 13.087 3.829 13.247 3.289L11.33 2.72C11.1106 3.4601 10.9994 4.22806 11 5H13ZM12 4C12.0867 4 12.1723 4.00133 12.257 4.004L12.32 2.005C12.2134 2.00163 12.1067 1.99996 12 2V4ZM4 12C4 9.87827 4.84285 7.84344 6.34315 6.34315C7.84344 4.84286 9.87827 4 12 4V2C6.477 2 2 6.477 2 12H4ZM12 20C9.87827 20 7.84344 19.1571 6.34315 17.6569C4.84285 16.1566 4 14.1217 4 12H2C2 17.523 6.477 22 12 22V20ZM20 12C20 14.1217 19.1571 16.1566 17.6569 17.6569C16.1566 19.1571 14.1217 20 12 20V22C17.523 22 22 17.523 22 12H20ZM19.996 11.743C19.9987 11.8277 20 11.9133 20 12H22C22 11.8933 21.9983 11.7867 21.995 11.68L19.996 11.743Z" fill="#2c2c31"/>
</svg>
