<svg width="48" height="48" viewBox="0 0 48 48" fill="none" xmlns="http://www.w3.org/2000/svg">
<path d="M34.5 5.5H13.5C10.9804 5.5 8.56408 6.50089 6.78249 8.28249C5.00089 10.0641 4 12.4804 4 15V33C4 34.2476 4.24572 35.4829 4.72314 36.6355C5.20056 37.7881 5.90033 38.8354 6.78249 39.7175C8.56408 41.4991 10.9804 42.5 13.5 42.5H34.5C37.0179 42.4947 39.4312 41.4921 41.2117 39.7117C42.9921 37.9312 43.9947 35.5179 44 33V15C43.9947 12.4821 42.9921 10.0688 41.2117 8.28832C39.4312 6.50787 37.0179 5.50528 34.5 5.5ZM27.2 22.14C26.216 22.7012 25.1028 22.9963 23.97 22.9963C22.8372 22.9963 21.724 22.7012 20.74 22.14L7.04 14.28C7.21715 12.6906 7.97401 11.2223 9.16583 10.1559C10.3577 9.08957 11.9008 8.5 13.5 8.5H34.5C36.098 8.50438 37.6387 9.09546 38.8296 10.161C40.0205 11.2265 40.7786 12.6923 40.96 14.28L27.2 22.14Z" fill="#979797"/>
</svg>
