<svg width="48" height="48" viewBox="0 0 48 48" fill="none" xmlns="http://www.w3.org/2000/svg">
<path d="M24 4C21.3736 4 18.7728 4.53016 16.3463 5.56021C13.9198 6.59025 11.715 8.10002 9.85786 10.0033C6.10714 13.8471 4 19.0605 4 24.4965C4 33.556 9.74 41.2422 17.68 43.9683C18.68 44.1322 19 43.4968 19 42.9434V39.4795C13.46 40.7093 12.28 36.733 12.28 36.733C11.36 34.3554 10.06 33.72 10.06 33.72C8.24 32.4492 10.2 32.4902 10.2 32.4902C12.2 32.6337 13.26 34.6013 13.26 34.6013C15 37.7168 17.94 36.7945 19.08 36.3025C19.26 34.9703 19.78 34.0684 20.34 33.556C15.9 33.0436 11.24 31.2809 11.24 23.4717C11.24 21.1966 12 19.3724 13.3 17.9172C13.1 17.4047 12.4 15.2731 13.5 12.5061C13.5 12.5061 15.18 11.9527 19 14.5967C20.58 14.1458 22.3 13.9203 24 13.9203C25.7 13.9203 27.42 14.1458 29 14.5967C32.82 11.9527 34.5 12.5061 34.5 12.5061C35.6 15.2731 34.9 17.4047 34.7 17.9172C36 19.3724 36.76 21.1966 36.76 23.4717C36.76 31.3014 32.08 33.0231 27.62 33.5355C28.34 34.1709 29 35.4212 29 37.3274V42.9434C29 43.4968 29.32 44.1527 30.34 43.9683C38.28 41.2217 44 33.556 44 24.4965C44 21.8049 43.4827 19.1396 42.4776 16.6529C41.4725 14.1661 39.9993 11.9066 38.1421 10.0033C36.285 8.10002 34.0802 6.59025 31.6537 5.56021C29.2272 4.53016 26.6264 4 24 4Z" fill="#DBDBDB"/>
</svg>
