<svg width="60" height="60" viewBox="0 0 60 60" fill="none" xmlns="http://www.w3.org/2000/svg">
<path d="M45.029 20.3449H41.6064L33.2092 28.7384C33.4984 29.4755 33.525 30.2897 33.2845 31.0441C33.044 31.7985 32.5511 32.4471 31.8886 32.8808C31.2262 33.3145 30.4346 33.5068 29.647 33.4255C28.8594 33.3442 28.1238 32.9942 27.5639 32.4343C27.004 31.8744 26.654 31.1388 26.5727 30.3512C26.4914 29.5636 26.6837 28.772 27.1174 28.1096C27.5511 27.4471 28.1997 26.9542 28.9541 26.7137C29.7085 26.4732 30.5227 26.4998 31.2598 26.789L39.6552 18.3936V14.9711C39.6553 14.5131 39.8372 14.0739 40.1609 13.7499L43.3425 10.5683C43.4014 10.5091 43.4753 10.467 43.5563 10.4466C43.6373 10.4261 43.7224 10.4282 43.8023 10.4525C43.966 10.5003 44.0873 10.6364 44.1204 10.8037L44.9664 15.0354L49.1963 15.8814C49.3618 15.9145 49.4979 16.0359 49.5457 16.1996C49.5699 16.2791 49.572 16.3637 49.552 16.4443C49.5319 16.5249 49.4903 16.5986 49.4317 16.6575L46.2483 19.8391C45.9247 20.1624 45.4863 20.3442 45.029 20.3449Z" fill="black"/>
<path d="M12.7586 30C12.7586 34.5727 14.5751 38.9581 17.8085 42.1915C21.0419 45.4249 25.4273 47.2414 30 47.2414C32.2642 47.2414 34.5062 46.7954 36.598 45.929C38.6898 45.0625 40.5905 43.7925 42.1915 42.1915C43.7925 40.5905 45.0625 38.6898 45.929 36.598C46.7954 34.5062 47.2414 32.2642 47.2414 30C47.2414 28.3485 47.0097 26.7522 46.5775 25.2423C46.4916 24.8956 46.5435 24.5291 46.7223 24.22C46.9011 23.9108 47.1929 23.683 47.5363 23.5846C47.8796 23.4862 48.2477 23.5248 48.5632 23.6923C48.8786 23.8599 49.1168 24.1432 49.2276 24.4828C49.7315 26.2372 50 28.0874 50 30C50 41.0455 41.0455 50 30 50C18.9545 50 10 41.0455 10 30C10 18.9545 18.9545 10 30 10C31.8667 9.99817 33.7223 10.2575 35.5172 10.7706C35.6923 10.8197 35.8558 10.9029 35.9986 11.0154C36.1413 11.1279 36.2604 11.2676 36.349 11.4263C36.4376 11.585 36.494 11.7596 36.5149 11.9402C36.5358 12.1208 36.5208 12.3037 36.4707 12.4784C36.4207 12.6532 36.3366 12.8163 36.2233 12.9584C36.11 13.1005 35.9697 13.2189 35.8105 13.3066C35.6513 13.3944 35.4763 13.4498 35.2957 13.4697C35.115 13.4896 34.9322 13.4735 34.7577 13.4225C33.2104 12.9809 31.6091 12.7574 30 12.7586C25.4273 12.7586 21.0419 14.5751 17.8085 17.8085C14.5751 21.0419 12.7586 25.4273 12.7586 30Z" fill="black"/>
<path d="M21.0344 30.0001C21.0396 31.2182 21.2929 32.4224 21.779 33.5393C22.265 34.6562 22.9737 35.6623 23.8615 36.4962C24.7494 37.3301 25.798 37.9743 26.9431 38.3894C28.0883 38.8045 29.306 38.9819 30.522 38.9107C31.738 38.8395 32.9267 38.5212 34.0156 37.9752C35.1045 37.4293 36.0707 36.6671 36.8552 35.7353C37.6396 34.8035 38.226 33.7216 38.5784 32.5556C38.9308 31.3896 39.0418 30.164 38.9048 28.9537C38.8662 28.7086 38.8946 28.4575 38.987 28.2273C39.0794 27.997 39.2324 27.7959 39.4298 27.6455C39.6271 27.4951 39.8615 27.4009 40.1081 27.3728C40.3546 27.3447 40.6042 27.3839 40.8303 27.4861C41.2919 27.6921 41.6027 28.1316 41.6432 28.6355C41.9287 31.0544 41.4536 33.5021 40.2839 35.6384C39.1141 37.7748 37.3079 39.4937 35.1162 40.5562C32.9245 41.6186 30.4563 41.9719 28.0545 41.5669C25.6528 41.1619 23.4369 40.0187 21.7149 38.2962C19.9933 36.5756 18.8498 34.3619 18.443 31.9622C18.0362 29.5624 18.3863 27.0956 19.4446 24.9037C20.5029 22.7119 22.2171 20.9037 24.3493 19.7299C26.4816 18.5562 28.9263 18.075 31.3443 18.3532C31.5271 18.3702 31.7047 18.4235 31.8666 18.5099C32.0286 18.5964 32.1716 18.7144 32.2874 18.8568C32.4031 18.9993 32.4893 19.1635 32.5408 19.3397C32.5923 19.5159 32.6081 19.7006 32.5873 19.883C32.5665 20.0654 32.5095 20.2418 32.4196 20.4019C32.3297 20.562 32.2088 20.7025 32.0639 20.8152C31.919 20.928 31.7531 21.0106 31.5759 21.0584C31.3986 21.1062 31.2136 21.1181 31.0317 21.0935C29.7756 20.9482 28.5031 21.0703 27.2975 21.4516C26.092 21.8329 24.9807 22.4648 24.0366 23.3059C23.0925 24.147 22.337 25.1782 21.8196 26.3319C21.3022 27.4856 21.0346 28.7357 21.0344 30.0001Z" fill="black"/>
</svg>
