<svg width="48" height="48" viewBox="0 0 48 48" fill="none" xmlns="http://www.w3.org/2000/svg">
<path d="M37 6H32C31.7348 6 31.4804 6.10536 31.2929 6.29289C31.1054 6.48043 31 6.73478 31 7V7.118L38 12.718V7C38 6.73478 37.8946 6.48043 37.7071 6.29289C37.5196 6.10536 37.2652 6 37 6Z" fill="#979797"/>
<path d="M21.5 19C21.5 18.337 21.7634 17.7011 22.2322 17.2322C22.7011 16.7634 23.337 16.5 24 16.5C24.663 16.5 25.2989 16.7634 25.7678 17.2322C26.2366 17.7011 26.5 18.337 26.5 19C26.5 19.663 26.2366 20.2989 25.7678 20.7678C25.2989 21.2366 24.663 21.5 24 21.5C23.337 21.5 22.7011 21.2366 22.2322 20.7678C21.7634 20.2989 21.5 19.663 21.5 19Z" fill="#979797"/>
<path fill-rule="evenodd" clip-rule="evenodd" d="M41.5 21.9202L43.064 23.1722C43.3754 23.4148 43.7698 23.525 44.1618 23.4787C44.5538 23.4324 44.9118 23.2335 45.1581 22.9251C45.4044 22.6167 45.5193 22.2236 45.4777 21.831C45.4361 21.4385 45.2415 21.0782 44.936 20.8282L28.686 7.8282C27.356 6.76392 25.7034 6.18408 24 6.18408C22.2966 6.18408 20.644 6.76392 19.314 7.8282L3.064 20.8282C2.75317 21.0767 2.55378 21.4385 2.50971 21.834C2.46564 22.2295 2.58049 22.6264 2.829 22.9372C3.07751 23.248 3.43932 23.4474 3.83483 23.4915C4.23034 23.5356 4.62717 23.4207 4.938 23.1722L6.5 21.9202V42.5002H4C3.60218 42.5002 3.22064 42.6582 2.93934 42.9395C2.65804 43.2208 2.5 43.6024 2.5 44.0002C2.5 44.398 2.65804 44.7796 2.93934 45.0609C3.22064 45.3422 3.60218 45.5002 4 45.5002H44C44.3978 45.5002 44.7794 45.3422 45.0607 45.0609C45.342 44.7796 45.5 44.398 45.5 44.0002C45.5 43.6024 45.342 43.2208 45.0607 42.9395C44.7794 42.6582 44.3978 42.5002 44 42.5002H41.5V21.9202ZM18.5 19.0002C18.5 17.5415 19.0795 16.1426 20.1109 15.1111C21.1424 14.0797 22.5413 13.5002 24 13.5002C25.4587 13.5002 26.8576 14.0797 27.8891 15.1111C28.9205 16.1426 29.5 17.5415 29.5 19.0002C29.5 20.4589 28.9205 21.8578 27.8891 22.8893C26.8576 23.9207 25.4587 24.5002 24 24.5002C22.5413 24.5002 21.1424 23.9207 20.1109 22.8893C19.0795 21.8578 18.5 20.4589 18.5 19.0002ZM24.1 26.5002C25.428 26.5002 26.574 26.5002 27.492 26.6242C28.476 26.7562 29.418 27.0542 30.182 27.8182C30.946 28.5822 31.244 29.5242 31.376 30.5082C31.492 31.3682 31.5 32.4282 31.5 33.6542V42.5002H28.5V34.0002C28.5 32.5442 28.496 31.6002 28.404 30.9082C28.316 30.2582 28.176 30.0542 28.06 29.9402C27.944 29.8262 27.742 29.6842 27.092 29.5962C26.398 29.5042 25.456 29.5002 24 29.5002C22.544 29.5002 21.6 29.5042 20.908 29.5962C20.258 29.6842 20.054 29.8262 19.94 29.9402C19.826 30.0542 19.684 30.2582 19.596 30.9082C19.504 31.6022 19.5 32.5442 19.5 34.0002V42.5002H16.5V33.9002C16.5 32.5722 16.5 31.4262 16.624 30.5082C16.756 29.5242 17.054 28.5822 17.818 27.8182C18.582 27.0542 19.526 26.7562 20.508 26.6242C21.426 26.5002 22.572 26.5002 23.902 26.5002H24.1Z" fill="#979797"/>
<path d="M21.5 19C21.5 18.337 21.7634 17.7011 22.2322 17.2322C22.7011 16.7634 23.337 16.5 24 16.5C24.663 16.5 25.2989 16.7634 25.7678 17.2322C26.2366 17.7011 26.5 18.337 26.5 19C26.5 19.663 26.2366 20.2989 25.7678 20.7678C25.2989 21.2366 24.663 21.5 24 21.5C23.337 21.5 22.7011 21.2366 22.2322 20.7678C21.7634 20.2989 21.5 19.663 21.5 19Z" fill="#979797"/>
</svg>
