<svg width="24" height="24" viewBox="0 0 24 24" fill="none" xmlns="http://www.w3.org/2000/svg">
<path d="M3.00011 17H21.0001C21.255 17.0003 21.5001 17.0979 21.6855 17.2728C21.8708 17.4478 21.9823 17.687 21.9973 17.9414C22.0122 18.1958 21.9294 18.4464 21.7658 18.6418C21.6023 18.8373 21.3702 18.9629 21.1171 18.993L21.0001 19H3.00011C2.74523 18.9997 2.50008 18.9021 2.31474 18.7272C2.12941 18.5522 2.01788 18.313 2.00294 18.0586C1.988 17.8042 2.07079 17.5536 2.23438 17.3582C2.39797 17.1627 2.63002 17.0371 2.88311 17.007L3.00011 17ZM3.00011 11L21.0001 10.998C21.255 10.9983 21.5001 11.0959 21.6855 11.2708C21.8708 11.4458 21.9823 11.685 21.9973 11.9394C22.0122 12.1938 21.9294 12.4444 21.7658 12.6398C21.6023 12.8353 21.3702 12.9609 21.1171 12.991L21.0001 12.998L3.00011 13C2.74523 12.9997 2.50008 12.9021 2.31474 12.7272C2.12941 12.5522 2.01788 12.313 2.00294 12.0586C1.988 11.8042 2.07079 11.5536 2.23438 11.3582C2.39797 11.1627 2.63002 11.0371 2.88311 11.007L3.00011 11ZM3.00011 5H21.0001C21.255 5.00028 21.5001 5.09788 21.6855 5.27285C21.8708 5.44782 21.9823 5.68695 21.9973 5.94139C22.0122 6.19584 21.9294 6.44638 21.7658 6.64183C21.6023 6.83729 21.3702 6.9629 21.1171 6.993L21.0001 7H3.00011C2.74523 6.99972 2.50008 6.90212 2.31474 6.72715C2.12941 6.55218 2.01788 6.31305 2.00294 6.05861C1.988 5.80416 2.07079 5.55362 2.23438 5.35817C2.39797 5.16271 2.63002 5.0371 2.88311 5.007L3.00011 5Z" fill="black"/>
</svg>
