<svg width="60" height="60" viewBox="0 0 60 60" fill="none" xmlns="http://www.w3.org/2000/svg">
<path d="M44 25.24C44 30.4 41.46 34.37 37.596 36.984C36.696 37.592 36.246 37.896 36.024 38.244C35.804 38.588 35.726 39.044 35.576 39.952L35.456 40.658C35.192 42.254 35.058 43.052 34.498 43.526C33.938 44 33.13 44 31.512 44H26.288C24.67 44 23.862 44 23.302 43.526C22.742 43.052 22.61 42.254 22.342 40.658L22.226 39.952C22.074 39.046 22 38.592 21.78 38.248C21.56 37.904 21.108 37.596 20.206 36.98C16.384 34.366 14 30.398 14 25.24C14 16.826 20.716 10 29 10C30.0077 9.99894 31.013 10.1008 32 10.304" stroke="black" stroke-width="3.5" stroke-linecap="round" stroke-linejoin="round"/>
<path d="M33 44V46C33 47.886 33 48.828 32.414 49.414C31.828 50 30.886 50 29 50C27.114 50 26.172 50 25.586 49.414C25 48.828 25 47.886 25 46V44M39 10L39.516 11.394C40.192 13.222 40.53 14.136 41.196 14.802C41.864 15.47 42.778 15.808 44.606 16.484L46 17L44.606 17.516C42.778 18.192 41.864 18.53 41.198 19.196C40.53 19.864 40.192 20.778 39.516 22.606L39 24L38.484 22.606C37.808 20.778 37.47 19.864 36.804 19.198C36.136 18.53 35.222 18.192 33.394 17.516L32 17L33.394 16.484C35.222 15.808 36.136 15.47 36.802 14.804C37.47 14.136 37.808 13.222 38.484 11.394L39 10Z" stroke="black" stroke-width="3.5" stroke-linecap="round" stroke-linejoin="round"/>
</svg>
