<svg width="48" height="48" viewBox="0 0 48 48" fill="none" xmlns="http://www.w3.org/2000/svg">
<path d="M24 24C21.8 24 19.9167 23.2167 18.35 21.65C16.7833 20.0833 16 18.2 16 16C16 13.8 16.7833 11.9167 18.35 10.35C19.9167 8.78333 21.8 8 24 8C26.2 8 28.0833 8.78333 29.65 10.35C31.2167 11.9167 32 13.8 32 16C32 18.2 31.2167 20.0833 29.65 21.65C28.0833 23.2167 26.2 24 24 24ZM8 36V34.4C8 33.2667 8.292 32.2253 8.876 31.276C9.46 30.3267 10.2347 29.6013 11.2 29.1C13.2667 28.0667 15.3667 27.292 17.5 26.776C19.6333 26.26 21.8 26.0013 24 26C26.2 25.9987 28.3667 26.2573 30.5 26.776C32.6333 27.2947 34.7333 28.0693 36.8 29.1C37.7667 29.6 38.542 30.3253 39.126 31.276C39.71 32.2267 40.0013 33.268 40 34.4V36C40 37.1 39.6087 38.042 38.826 38.826C38.0433 39.61 37.1013 40.0013 36 40H12C10.9 40 9.95867 39.6087 9.176 38.826C8.39333 38.0433 8.00133 37.1013 8 36Z" fill="#979797"/>
</svg>
