<svg width="48" height="48" viewBox="0 0 48 48" fill="none" xmlns="http://www.w3.org/2000/svg">
<path fill-rule="evenodd" clip-rule="evenodd" d="M38.1669 0.215832H10.4435C8.49983 0.217695 6.63334 0.97663 5.2399 2.33167C3.84645 3.68671 3.03566 5.53127 2.97949 7.47412V40.2993C2.98131 42.2776 3.7685 44.1744 5.16807 45.5727C6.56764 46.971 8.4651 47.7564 10.4435 47.7564H41.4275C42.1095 47.7564 42.7635 47.4855 43.2458 47.0033C43.728 46.521 43.9989 45.867 43.9989 45.185C43.9989 44.503 43.728 43.8489 43.2458 43.3667C42.7635 42.8845 42.1095 42.6135 41.4275 42.6135H40.7418V37.3713C41.7199 36.8904 42.5436 36.145 43.1193 35.2195C43.6951 34.2941 43.9998 33.2257 43.9989 32.1358V6.0444C43.9994 5.27841 43.8488 4.51983 43.5559 3.81206C43.263 3.10429 42.8334 2.46119 42.2918 1.91955C41.7501 1.37791 41.107 0.948346 40.3993 0.65542C39.6915 0.362494 38.9329 0.211953 38.1669 0.212403V0.215832ZM8.80121 41.9313C8.47737 41.6065 8.25701 41.193 8.16796 40.7431C8.07891 40.2931 8.12516 39.8269 8.30086 39.4032C8.47657 38.9795 8.77385 38.6174 9.15519 38.3626C9.53653 38.1077 9.98483 37.9715 10.4435 37.9713H35.5955V42.6135H10.4435C9.82623 42.6129 9.23783 42.3676 8.80121 41.9313ZM29.4069 28.5393C28.2016 28.8237 26.9371 28.7168 25.7966 28.2341C21.1841 25.4678 17.3241 21.6078 14.5578 16.9953C14.0792 15.8529 13.9748 14.5884 14.2593 13.383C14.5439 12.1776 15.2029 11.0933 16.1418 10.2855L16.9852 9.44212C17.2802 9.0739 17.7061 8.83402 18.1739 8.77268C18.6416 8.71133 19.115 8.83327 19.4949 9.11297L22.2241 11.8421C22.5038 12.222 22.6257 12.6954 22.5644 13.1632C22.503 13.631 22.2631 14.0569 21.8949 14.3518C21.5272 14.6473 21.288 15.0734 21.2273 15.5412C21.1666 16.0089 21.2891 16.482 21.5692 16.8615L25.9304 21.2227C26.3099 21.5028 26.783 21.6253 27.2507 21.5646C27.7185 21.5039 28.1446 21.2647 28.4401 20.897C28.7355 20.5293 29.1617 20.2901 29.6294 20.2294C30.0972 20.1687 30.5703 20.2912 30.9498 20.5713L33.6789 23.297C33.9586 23.6769 34.0806 24.1503 34.0192 24.618C33.9579 25.0858 33.718 25.5117 33.3498 25.8067L32.5063 26.6535C31.701 27.5952 30.6166 28.2558 29.4104 28.5393H29.4069Z" fill="#979797"/>
</svg>
