<svg width="60" height="60" viewBox="0 0 60 60" fill="none" xmlns="http://www.w3.org/2000/svg">
<path d="M30 10C18.9723 10 10 18.9723 10 30C10 41.0277 18.9723 50 30 50C41.0277 50 50 41.0277 50 30C50 18.9723 41.0277 10 30 10ZM30 13.0769C39.3308 13.0769 46.9231 20.6692 46.9231 30C46.9231 39.3308 39.3308 46.9231 30 46.9231C20.6692 46.9231 13.0769 39.3308 13.0769 30C13.0769 20.6692 20.6692 13.0769 30 13.0769ZM23.0769 23.8462C22.4649 23.8462 21.8779 24.0893 21.4451 24.5221C21.0124 24.9548 20.7692 25.5418 20.7692 26.1538C20.7692 26.7659 21.0124 27.3529 21.4451 27.7856C21.8779 28.2184 22.4649 28.4615 23.0769 28.4615C23.689 28.4615 24.2759 28.2184 24.7087 27.7856C25.1415 27.3529 25.3846 26.7659 25.3846 26.1538C25.3846 25.5418 25.1415 24.9548 24.7087 24.5221C24.2759 24.0893 23.689 23.8462 23.0769 23.8462ZM36.9231 23.8462C36.311 23.8462 35.7241 24.0893 35.2913 24.5221C34.8585 24.9548 34.6154 25.5418 34.6154 26.1538C34.6154 26.7659 34.8585 27.3529 35.2913 27.7856C35.7241 28.2184 36.311 28.4615 36.9231 28.4615C37.5351 28.4615 38.1221 28.2184 38.5549 27.7856C38.9876 27.3529 39.2308 26.7659 39.2308 26.1538C39.2308 25.5418 38.9876 24.9548 38.5549 24.5221C38.1221 24.0893 37.5351 23.8462 36.9231 23.8462ZM19.2308 34.6154C19.2308 34.6154 21.7 42.3077 30 42.3077C38.3 42.3077 40.7692 34.6154 40.7692 34.6154H19.2308Z" fill="black"/>
</svg>
