<svg width="60" height="60" viewBox="0 0 60 60" fill="none" xmlns="http://www.w3.org/2000/svg">
<path fill-rule="evenodd" clip-rule="evenodd" d="M15 27C16.5913 27 18.1174 26.3679 19.2426 25.2426C20.3679 24.1174 21 22.5913 21 21C21 19.4087 20.3679 17.8826 19.2426 16.7574C18.1174 15.6321 16.5913 15 15 15C13.4087 15 11.8826 15.6321 10.7574 16.7574C9.63214 17.8826 9 19.4087 9 21C9 22.5913 9.63214 24.1174 10.7574 25.2426C11.8826 26.3679 13.4087 27 15 27ZM15 30C16.1819 30 17.3522 29.7672 18.4442 29.3149C19.5361 28.8626 20.5282 28.1997 21.364 27.364C22.1997 26.5282 22.8626 25.5361 23.3149 24.4442C23.7672 23.3522 24 22.1819 24 21C24 19.8181 23.7672 18.6478 23.3149 17.5558C22.8626 16.4639 22.1997 15.4718 21.364 14.636C20.5282 13.8003 19.5361 13.1374 18.4442 12.6851C17.3522 12.2328 16.1819 12 15 12C12.6131 12 10.3239 12.9482 8.63604 14.636C6.94821 16.3239 6 18.6131 6 21C6 23.3869 6.94821 25.6761 8.63604 27.364C10.3239 29.0518 12.6131 30 15 30Z" fill="black"/>
<path fill-rule="evenodd" clip-rule="evenodd" d="M11.562 26.6878C11.7017 26.8272 11.8125 26.9927 11.8881 27.1749C11.9638 27.3572 12.0027 27.5525 12.0027 27.7498C12.0027 27.9472 11.9638 28.1425 11.8881 28.3247C11.8125 28.507 11.7017 28.6725 11.562 28.8118L10.548 29.8228C8.59661 31.7748 7.50026 34.4218 7.5 37.1818V42.7498C7.5 43.1477 7.34196 43.5292 7.06066 43.8105C6.77936 44.0918 6.39782 44.2498 6 44.2498C5.60218 44.2498 5.22064 44.0918 4.93934 43.8105C4.65804 43.5292 4.5 43.1477 4.5 42.7498V37.1818C4.50043 33.6262 5.91296 30.2163 8.427 27.7018L9.438 26.6878C9.57734 26.5482 9.74286 26.4373 9.9251 26.3617C10.1073 26.2861 10.3027 26.2472 10.5 26.2472C10.6973 26.2472 10.8927 26.2861 11.0749 26.3617C11.2571 26.4373 11.4227 26.5482 11.562 26.6878ZM46.938 25.7878C46.7983 25.9272 46.6875 26.0927 46.6119 26.2749C46.5362 26.4572 46.4973 26.6525 46.4973 26.8498C46.4973 27.0472 46.5362 27.2425 46.6119 27.4248C46.6875 27.607 46.7983 27.7725 46.938 27.9118L47.952 28.9228C49.9034 30.8748 50.9997 33.5218 51 36.2818V42.7498C51 43.1477 51.158 43.5292 51.4393 43.8105C51.7206 44.0918 52.1022 44.2498 52.5 44.2498C52.8978 44.2498 53.2794 44.0918 53.5607 43.8105C53.842 43.5292 54 43.1477 54 42.7498V36.2818C53.9996 32.7262 52.587 29.3163 50.073 26.8018L49.062 25.7878C48.9227 25.6482 48.7571 25.5373 48.5749 25.4617C48.3927 25.3861 48.1973 25.3472 48 25.3472C47.8027 25.3472 47.6073 25.3861 47.4251 25.4617C47.2429 25.5373 47.0773 25.6482 46.938 25.7878Z" fill="black"/>
<path fill-rule="evenodd" clip-rule="evenodd" d="M42 27C40.4087 27 38.8826 26.3679 37.7574 25.2426C36.6321 24.1174 36 22.5913 36 21C36 19.4087 36.6321 17.8826 37.7574 16.7574C38.8826 15.6321 40.4087 15 42 15C43.5913 15 45.1174 15.6321 46.2426 16.7574C47.3679 17.8826 48 19.4087 48 21C48 22.5913 47.3679 24.1174 46.2426 25.2426C45.1174 26.3679 43.5913 27 42 27ZM42 30C40.8181 30 39.6478 29.7672 38.5558 29.3149C37.4639 28.8626 36.4718 28.1997 35.636 27.364C34.8003 26.5282 34.1374 25.5361 33.6851 24.4442C33.2328 23.3522 33 22.1819 33 21C33 19.8181 33.2328 18.6478 33.6851 17.5558C34.1374 16.4639 34.8003 15.4718 35.636 14.636C36.4718 13.8003 37.4639 13.1374 38.5558 12.6851C39.6478 12.2328 40.8181 12 42 12C44.3869 12 46.6761 12.9482 48.364 14.636C50.0518 16.3239 51 18.6131 51 21C51 23.3869 50.0518 25.6761 48.364 27.364C46.6761 29.0518 44.3869 30 42 30ZM28.5 39.75C26.5109 39.75 24.6032 40.5402 23.1967 41.9467C21.7902 43.3532 21 45.2609 21 47.25V51.15C21 51.5478 20.842 51.9294 20.5607 52.2107C20.2794 52.492 19.8978 52.65 19.5 52.65C19.1022 52.65 18.7206 52.492 18.4393 52.2107C18.158 51.9294 18 51.5478 18 51.15V47.25C18 44.4652 19.1062 41.7945 21.0754 39.8254C23.0445 37.8562 25.7152 36.75 28.5 36.75C31.2848 36.75 33.9555 37.8562 35.9246 39.8254C37.8938 41.7945 39 44.4652 39 47.25V51.15C39 51.5478 38.842 51.9294 38.5607 52.2107C38.2794 52.492 37.8978 52.65 37.5 52.65C37.1022 52.65 36.7206 52.492 36.4393 52.2107C36.158 51.9294 36 51.5478 36 51.15V47.25C36 46.2651 35.806 45.2898 35.4291 44.3799C35.0522 43.4699 34.4997 42.6431 33.8033 41.9467C33.1069 41.2503 32.2801 40.6978 31.3701 40.3209C30.4602 39.944 29.4849 39.75 28.5 39.75Z" fill="black"/>
<path fill-rule="evenodd" clip-rule="evenodd" d="M28.5 35.25C30.0913 35.25 31.6174 34.6179 32.7426 33.4926C33.8679 32.3674 34.5 30.8413 34.5 29.25C34.5 27.6587 33.8679 26.1326 32.7426 25.0074C31.6174 23.8821 30.0913 23.25 28.5 23.25C26.9087 23.25 25.3826 23.8821 24.2574 25.0074C23.1321 26.1326 22.5 27.6587 22.5 29.25C22.5 30.8413 23.1321 32.3674 24.2574 33.4926C25.3826 34.6179 26.9087 35.25 28.5 35.25ZM28.5 38.25C30.8869 38.25 33.1761 37.3018 34.864 35.614C36.5518 33.9261 37.5 31.6369 37.5 29.25C37.5 26.8631 36.5518 24.5739 34.864 22.886C33.1761 21.1982 30.8869 20.25 28.5 20.25C26.1131 20.25 23.8239 21.1982 22.136 22.886C20.4482 24.5739 19.5 26.8631 19.5 29.25C19.5 31.6369 20.4482 33.9261 22.136 35.614C23.8239 37.3018 26.1131 38.25 28.5 38.25Z" fill="black"/>
</svg>
