<svg width="36" height="36" viewBox="0 0 36 36" fill="none" xmlns="http://www.w3.org/2000/svg">
<g clip-path="url(#clip0_215_547)">
<path d="M0 4.5C0 5.69347 0.474106 6.83807 1.31802 7.68198C2.16193 8.52589 3.30653 9 4.5 9C5.69347 9 6.83807 8.52589 7.68198 7.68198C8.52589 6.83807 9 5.69347 9 4.5C9 3.30653 8.52589 2.16193 7.68198 1.31802C6.83807 0.474106 5.69347 0 4.5 0C3.30653 0 2.16193 0.474106 1.31802 1.31802C0.474106 2.16193 0 3.30653 0 4.5ZM13.5 31.5C13.5 32.6935 13.9741 33.8381 14.818 34.682C15.6619 35.5259 16.8065 36 18 36C19.1935 36 20.3381 35.5259 21.182 34.682C22.0259 33.8381 22.5 32.6935 22.5 31.5C22.5 30.3065 22.0259 29.1619 21.182 28.318C20.3381 27.4741 19.1935 27 18 27C16.8065 27 15.6619 27.4741 14.818 28.318C13.9741 29.1619 13.5 30.3065 13.5 31.5ZM13.5 18C13.5 19.1935 13.9741 20.3381 14.818 21.182C15.6619 22.0259 16.8065 22.5 18 22.5C19.1935 22.5 20.3381 22.0259 21.182 21.182C22.0259 20.3381 22.5 19.1935 22.5 18C22.5 16.8065 22.0259 15.6619 21.182 14.818C20.3381 13.9741 19.1935 13.5 18 13.5C16.8065 13.5 15.6619 13.9741 14.818 14.818C13.9741 15.6619 13.5 16.8065 13.5 18ZM13.5 4.5C13.5 5.69347 13.9741 6.83807 14.818 7.68198C15.6619 8.52589 16.8065 9 18 9C19.1935 9 20.3381 8.52589 21.182 7.68198C22.0259 6.83807 22.5 5.69347 22.5 4.5C22.5 3.30653 22.0259 2.16193 21.182 1.31802C20.3381 0.474106 19.1935 0 18 0C16.8065 0 15.6619 0.474106 14.818 1.31802C13.9741 2.16193 13.5 3.30653 13.5 4.5ZM27 4.5C27 5.69347 27.4741 6.83807 28.318 7.68198C29.1619 8.52589 30.3065 9 31.5 9C32.6935 9 33.8381 8.52589 34.682 7.68198C35.5259 6.83807 36 5.69347 36 4.5C36 3.30653 35.5259 2.16193 34.682 1.31802C33.8381 0.474106 32.6935 0 31.5 0C30.3065 0 29.1619 0.474106 28.318 1.31802C27.4741 2.16193 27 3.30653 27 4.5Z" fill="#888888"/>
</g>
<defs>
<clipPath id="clip0_215_547">
<rect width="36" height="36" fill="white"/>
</clipPath>
</defs>
</svg>
