<svg width="48" height="48" viewBox="0 0 48 48" fill="none" xmlns="http://www.w3.org/2000/svg">
<path d="M23.999 26.2857C18.8092 26.2857 14.3999 27.7948 11.5199 30.1603V34.5599H36.4799V30.1603C33.5999 27.7948 29.1897 26.2857 23.999 26.2857ZM46.9151 24.0278L23.9385 13.4399L0.971436 24.0278L4.79992 25.7798V28.4745C3.83992 28.6732 3.83704 29.1763 3.83704 29.7743C3.83704 30.1276 3.95416 30.5414 4.17688 30.7891L2.8636 33.5999H7.5484L6.24664 30.7871C6.46552 30.5395 6.64504 30.1747 6.64504 29.8214C6.64504 29.2243 5.75992 28.6723 5.75992 28.4735V26.23L10.5599 28.3862V28.1951C13.4399 25.6905 18.5001 24.1007 23.998 24.1007C29.4978 24.1007 34.5599 25.6905 37.4399 28.1951V28.3862L46.9151 24.0278Z" fill="#979797"/>
</svg>
